Coordinates
version=1
nRows=20
nColumns=34
inDegrees=yes

Units are S.I. units (second, meters, Newtons, ...)
If the header above contains a line with 'inDegrees', this indicates whether rotational values are in degrees (yes) or radians (no).

endheader
time	pelvis_tilt	pelvis_list	pelvis_rotation	pelvis_tx	pelvis_ty	pelvis_tz	hip_flexion_r	hip_adduction_r	hip_rotation_r	knee_angle_r	ankle_angle_r	subtalar_angle_r	mtp_angle_r	hip_flexion_l	hip_adduction_l	hip_rotation_l	knee_angle_l	ankle_angle_l	subtalar_angle_l	mtp_angle_l	lumbar_extension	lumbar_bending	lumbar_rotation	arm_flex_r	arm_add_r	arm_rot_r	elbow_flex_r	pro_sup_r	arm_flex_l	arm_add_l	arm_rot_l	elbow_flex_l	pro_sup_l
      0.00000000	    -71.31764224	    -30.51754699	      4.66799387	      1.87541188	      0.94934411	     -0.57819202	     61.81872800	     30.00000025	     39.99999995	     11.78391137	    -50.00000000	     35.00000000	      0.00000000	    119.99999986	     30.00000025	    -39.99999995	      0.00000000	    -50.00000000	     -7.36774465	      0.00000000	     84.25470019	     11.77480484	     90.00000018	      6.36312927	    -38.58047417	     48.99485516	     97.24090621	     76.88559499	    -54.36743610	     -6.95340498	    -10.27206683	    143.62065788	    110.59797229
      0.00833330	    -67.75972447	    -29.63975456	      6.22662643	      1.86239024	      0.96280759	     -0.57986850	     61.35674539	     30.00000025	     39.99999995	     14.40365840	    -50.00000000	     35.00000000	      0.00000000	    119.99999986	     30.00000025	    -39.99999995	      0.00000000	    -50.00000000	      4.94886755	      0.00000000	     77.85798672	     12.03922574	     90.00000018	      5.28721992	    -37.68991173	     49.81836777	     94.44908550	     77.16850848	    -55.33386173	     -3.61277663	     -2.78996510	    131.90954057	    110.75470327
      0.01666670	    -67.44674736	    -30.68309708	      4.07458349	      1.84545677	      0.95473027	     -0.58177480	     63.04120408	     30.00000025	     39.99999995	     15.29234358	    -50.00000000	     35.00000000	      0.00000000	    119.99999986	     30.00000025	    -39.99999995	      0.00000000	    -50.00000000	      6.22430520	      0.00000000	     75.06801193	     17.18066152	     90.00000018	      5.24903095	    -39.05284491	     51.57311624	     95.94179296	     77.14275510	    -59.61345446	     -0.58929145	      2.05642357	    125.81825599	    110.66826359
      0.02500000	    -68.16770459	    -32.67540057	      1.70202634	      1.82884185	      0.94778241	     -0.58444435	     65.88275813	     30.00000025	     39.99999995	     14.11937002	    -50.00000000	     35.00000000	      0.00000000	    119.99999986	     30.00000025	    -39.99999995	      0.00000000	    -50.00000000	      7.82361143	      0.00000000	     74.32090466	     22.32423014	     90.00000018	      5.82207792	    -39.54176950	     54.63034368	     96.64076967	     76.40889966	    -64.91399608	      1.35271067	      6.63255535	    119.99902305	    109.90994841
      0.03333330	    -69.84565560	    -35.25569685	     -1.07200677	      1.81288527	      0.94148939	     -0.58639058	     70.11229869	     30.00000025	     39.99999995	     11.85639591	    -50.00000000	     35.00000000	      0.00000000	    119.99999986	     30.00000025	    -39.99999995	      0.00000000	    -50.00000000	     10.79985215	      0.00000000	     75.06816628	     27.09483039	     90.00000018	      4.52641351	    -39.27356883	     55.05346017	     96.88617622	     76.07582783	    -69.75572469	      2.38794224	      9.20624876	    113.28728424	    109.86256605
      0.04166670	    -72.85799410	    -38.78505488	     -4.89351409	      1.79765847	      0.93760978	     -0.58836089	     75.42354509	     30.00000025	     39.99999995	      9.11592117	    -50.00000000	     35.00000000	      0.00000000	    119.99999986	     30.00000025	    -39.99999995	      0.00000000	    -50.00000000	     19.85331098	      0.00000000	     77.91845438	     32.19618706	     90.00000018	      0.20816621	    -38.45811647	     52.13044294	     97.86052178	     75.34121568	    -74.71648801	      1.51109628	     10.99648918	    108.11120186	    109.61771581
      0.05000000	    -86.19963648	    -90.00000018	     -1.87019715	      1.85889601	      0.89360116	     -0.62428069	     98.74586365	     30.00000025	     39.99999995	     15.44930048	    -15.44419828	     35.00000000	      0.00000000	    110.49938793	     28.58344725	    -39.99999995	     81.51422685	    -12.30016115	     34.38831539	      0.00000000	     90.00000018	     10.95771141	     90.00000018	    -60.19776242	     11.87549230	     -8.69594219	    127.44687722	     99.58119563	    -25.62430030	    -63.61850649	     53.21285576	    115.42076693	     99.01451949
      0.05833330	    -86.25222893	    -90.00000018	     -1.81761362	      1.89441444	      0.88625937	     -0.62730262	     98.90605203	     30.00000025	     39.99999995	     17.14754668	    -13.18716161	     35.00000000	      0.00000000	    110.29572631	     18.86717196	    -39.99999995	     97.77156714	     -3.30759306	     35.00000000	      0.00000000	     90.00000018	      4.99493673	     89.43767978	    -48.88538437	     10.98265791	     -8.30787250	    125.48010353	    114.82847737	    -31.74518835	    -63.20285698	     39.94505293	    108.99819509	     88.10941716
      0.06666670	    -87.13631441	    -90.00000018	     -0.93352880	      1.93602091	      0.87437009	     -0.62518715	    100.36712595	     30.00000025	     39.99999995	     21.42290986	     -9.98203624	     35.00000000	      0.00000000	    108.86163965	      7.97070368	    -39.99999995	    113.86044537	      2.61220747	     35.00000000	      0.00000000	     90.00000018	     -3.44803000	     90.00000018	    -36.74082903	      9.32397177	     -8.10329085	    125.76353443	    115.32455612	    -27.68644444	    -65.29676588	     36.60234982	    106.13994857	     87.62204427
      0.07500000	    -86.80437890	    -90.00000018	     -1.26547055	      1.95283959	      0.86815103	     -0.61168586	    102.35145074	     30.00000025	     39.99999995	     24.79188537	     -6.62707091	     34.06242135	      0.00000000	    110.05058645	     -0.83704401	    -39.99999995	    120.84091378	      4.46180652	     35.00000000	      0.00000000	     90.00000018	     -5.48323850	     90.00000018	    -28.89254068	      4.13890100	     -6.92146939	    125.34363479	    118.09146012	    -33.31349893	    -63.69383404	     25.48385169	    104.40137520	     84.60350751
      0.08333330	    -86.41705505	    -90.00000018	     -1.65279954	      1.96649827	      0.86367716	     -0.59973891	    104.47625299	     30.00000025	     39.99999995	     28.60409734	     -3.23119309	     32.96346035	      0.00000000	    110.88187042	     -9.13449653	    -39.99999995	    126.67830962	      5.90653867	     35.00000000	      0.00000000	     90.00000018	     -6.40423083	     90.00000018	    -20.90415592	     -0.24437532	     -5.58696427	    123.48022804	    118.69076300	    -37.50788344	    -61.96647256	     16.23137256	    103.48071164	     82.85943317
      0.09166670	    -86.15143463	    -90.00000018	     -1.91842430	      1.97956669	      0.85604770	     -0.59027544	    106.65506571	     30.00000025	     39.99999995	     32.95010741	      0.50691482	     31.66548884	      0.00000000	    111.01719003	    -17.37307684	    -39.99999995	    132.57752612	      8.69843110	     35.00000000	      0.00000000	     90.00000018	     -6.99837106	     89.99636193	    -12.54750076	     -3.97665284	     -3.24892489	    121.69041239	    118.22155776	    -42.31343640	    -60.58633465	      6.86482202	    104.22302744	     81.43435950
      0.10000000	    -85.20978288	    -90.00000018	     -2.86008974	      1.98651347	      0.85494872	     -0.57883197	    108.40829323	     30.00000025	     39.99999995	     35.49839816	      5.14813607	     32.48530339	      0.00000000	    112.80435533	    -25.36951817	    -39.99999995	    135.04865898	     10.73331906	     35.00000000	      0.00000000	     90.00000018	     -3.97996880	     79.90958903	      4.22896112	     -7.49511316	     10.66007179	    110.37220323	    113.23997660	    -61.72800982	    -46.64611340	    -13.84131285	    105.34650212	     79.26824273
      0.10833330	    -83.62225349	    -90.00000018	     -4.44762527	      1.99058591	      0.85792460	     -0.56727768	    109.53634833	     30.00000025	     39.99999995	     35.90390539	      7.65071568	     32.92543978	      0.00000000	    116.05859423	    -33.21228434	    -39.99999995	    134.23234856	     12.51726553	     33.33576563	      0.00000000	     90.00000018	      0.29186233	     76.44654774	     13.52549484	     -8.47414350	     18.44724490	    104.21631724	    109.02093610	    -67.81661294	    -38.61843789	    -20.57280165	    106.24590196	     80.55800945
      0.11666670	    -81.88757612	    -90.00000018	     -6.18230588	      1.99760395	      0.86546067	     -0.55709512	    110.07245848	     30.00000025	     39.99999995	     34.90468938	      7.79182345	     32.56026846	      0.00000000	    119.99999986	    -41.97124704	    -39.99999995	    132.34146571	     11.26844395	     18.81703524	      0.00000000	     90.00000018	      4.35627756	     75.50493110	     19.55986694	     -8.11650901	     22.41421110	    100.35778833	    105.33775538	    -71.57402774	    -34.00017559	    -23.93598093	    107.78390767	     81.23658081
      0.12500000	    -80.81884363	    -90.00000018	     -7.25103917	      2.00637978	      0.86911400	     -0.56059755	    110.18124796	     30.00000025	     39.99999995	     35.85604668	      8.17495242	     31.17040806	      0.00000000	    119.99999986	    -49.96496774	    -39.99999995	    130.29887386	     11.94633190	     13.11085375	      0.00000000	     90.00000018	      6.29408811	     77.85389242	     21.98116978	     -5.88482430	     22.45248779	     99.92300042	    104.96267905	    -73.43182853	    -35.63909414	    -25.97568032	    107.39992226	     81.11814973
      0.13333330	    -81.32290939	    -90.00000018	     -6.74698209	      2.00633826	      0.87049226	     -0.56341324	    111.56225425	     28.60469214	     39.99999995	     41.12822324	      8.74545015	     28.57536455	      0.00000000	    119.99999986	    -50.00000023	    -39.99999995	    125.31116495	     13.38125446	      4.70446653	      0.00000000	     90.00000018	      5.80281727	     78.74696770	     24.61778664	     -3.06978458	     23.96674047	     95.47223853	    102.99735201	    -75.94338092	    -35.39184772	    -27.80392500	    107.25859838	     80.05233296
      0.14166670	    -82.94056320	    -90.00000018	     -5.12932997	      2.00507582	      0.87592565	     -0.56597631	    110.97024890	     22.53834901	     39.99999995	     41.18573851	      8.71691476	     30.74310570	      0.00000000	    119.99999986	    -50.00000023	    -39.99999995	    119.82979283	     10.58080036	     -1.85863119	      0.00000000	     90.00000018	      2.25539282	     80.80094177	     26.08391539	     -1.88593300	     24.41335816	     95.30407427	    102.79525312	    -76.75255142	    -36.32517444	    -29.50359848	    107.39801253	     79.81522344
      0.15000000	    -84.18461985	    -90.00000018	     -3.88527631	      2.00448181	      0.88542904	     -0.56856783	    110.38869258	     17.01947935	     39.99999995	     40.42107965	      6.76062877	     32.29665094	      0.00000000	    119.99999986	    -50.00000023	    -39.99999995	    112.95244179	      7.36339532	    -10.56110753	      0.00000000	     90.00000018	     -0.32659309	     82.53111470	     27.26754048	     -0.82726947	     24.54191161	     96.10855813	    102.56210146	    -77.63210346	    -36.97485899	    -31.21940293	    107.76108564	     79.46255269
      0.15833330	    -84.98393800	    -90.00000018	     -3.08596210	      2.00482035	      0.89506978	     -0.56964974	    109.99843897	     12.40418856	     39.99999995	     39.18196402	      3.46594952	     33.99695202	      0.00000000	    119.99999986	    -50.00000023	    -39.99999995	    104.48333849	      2.17681446	    -20.67198144	      0.00000000	     90.00000018	     -1.98728007	     84.34309740	     27.67886659	     -0.81423395	     24.54884545	     96.67074250	    102.37589585	    -78.22528976	    -37.42617824	    -32.82431529	    108.27584905	     79.06648335
